P2
79 66
255
255 255 255 255 255 255 255 255 255 255 255 255 255 251 131 0 0 4 12 78 168 
211 248 255 255 255 255 255 236 181 115 36 1 2 0 0 0 0 0 0 0 0 60 203 228 189 
244 255 250 145 109 67 190 255 255 247 188 114 89 236 255 254 255 255 255 248 
52 0 0 2 1 0 1 2 7 0 0 36 254 255 255 255 255 255 255 255 255 255 255 255 255 
255 181 12 0 31 93 157 157 175 223 253 255 255 255 255 255 255 255 255 245 127 
90 28 9 0 0 0 0 0 0 0 0 80 169 247 255 255 255 178 50 99 226 255 255 255 135 
150 251 255 215 255 255 255 255 222 23 0 0 9 5 0 8 10 0 0 13 115 255 255 255 
255 255 255 255 255 255 255 255 255 219 20 0 8 104 154 154 212 255 255 255 255 
255 255 255 255 255 255 255 253 225 190 173 125 37 0 0 0 0 0 0 0 15 170 255 
255 255 255 242 226 103 179 255 255 255 246 255 255 193 172 255 255 255 255 
255 147 0 0 0 10 0 33 36 2 4 18 0 255 255 255 255 255 255 255 255 255 255 255 
250 59 0 9 26 144 231 255 255 255 255 255 255 255 255 255 255 255 255 255 253 
188 79 94 154 175 158 63 0 0 0 0 0 54 222 255 255 255 255 255 255 159 242 255 
227 202 255 230 197 52 146 172 239 255 255 255 239 173 100 9 0 1 33 37 3 4 2 1 
255 255 255 255 255 255 255 255 255 255 255 131 0 0 13 150 253 255 255 255 255 
255 255 255 255 255 255 255 255 255 255 255 250 220 65 11 35 90 185 195 60 0 0 
0 1 115 249 255 255 255 255 255 249 255 229 159 77 221 124 57 12 91 156 237 
255 155 246 255 255 213 36 0 0 14 43 6 1 0 0 255 255 255 255 255 255 255 255 
255 255 221 14 0 0 98 255 255 255 255 255 255 255 255 255 255 255 255 255 255 
255 255 255 255 255 216 129 30 0 10 124 246 143 0 0 0 50 162 164 253 255 255 
255 255 255 213 26 106 191 111 104 141 251 247 255 236 11 197 255 255 230 48 
0 20 7 23 0 0 2 0 255 255 255 255 255 255 255 255 255 255 82 1 0 39 214 255 
255 255 255 255 255 255 255 255 255 255 255 255 255 255 255 255 255 255 235 
178 86 2 19 5 19 133 189 25 0 132 172 210 255 255 255 255 255 255 226 172 239 
255 255 255 255 255 255 255 122 45 255 243 243 255 213 18 1 38 10 17 7 10 8 255 
255 255 255 255 255 255 255 255 245 61 0 7 175 255 255 255 255 255 255 255 255 
255 255 255 255 255 255 255 255 255 255 255 255 255 216 174 76 5 12 0 0 18 61 
10 162 255 255 246 239 255 255 255 232 178 255 255 255 255 255 239 255 255 255 
117 88 192 116 111 228 112 6 3 8 16 24 15 0 91 255 255 255 255 255 255 238 252 
251 126 5 0 80 253 255 255 255 255 255 255 255 255 255 255 255 255 255 255 255 
255 255 255 255 255 255 255 160 154 33 0 0 0 0 0 0 145 255 255 237 148 221 249 
255 153 9 170 220 214 249 228 191 193 255 255 234 192 194 157 122 98 17 0 3 14 
8 25 3 0 139 255 255 255 255 255 155 155 133 134 18 0 5 230 255 255 255 255 
255 255 255 255 255 255 255 255 255 255 255 255 255 255 255 255 255 255 255 
197 186 166 35 0 0 0 0 15 179 255 244 151 73 96 221 255 213 60 145 195 73 152 
158 208 168 255 255 255 255 255 217 204 165 121 10 1 36 15 0 0 0 106 255 255 
255 255 255 118 242 228 121 0 3 174 255 255 255 255 255 255 255 255 255 255 
255 255 255 255 255 255 255 255 255 255 255 255 255 255 216 172 192 80 0 0 0 0 
15 178 255 255 176 90 126 225 255 254 231 246 253 196 87 228 250 248 255 255 
255 255 255 255 255 255 246 18 2 12 3 0 0 0 86 255 255 255 255 158 185 255 230 
60 0 21 234 255 255 255 255 255 255 255 255 255 255 255 255 255 255 255 255 
255 255 255 255 255 255 255 255 226 195 177 216 45 0 0 0 9 171 255 255 254 254 
255 255 255 255 255 255 255 255 251 255 255 251 206 160 195 185 255 255 255 
255 73 5 0 0 0 0 0 0 64 52 94 112 118 155 254 252 154 0 0 108 250 255 255 255 
255 255 255 255 255 255 255 255 255 255 255 255 255 255 255 255 255 255 255 
255 255 242 193 224 177 47 0 0 0 0 58 190 254 255 228 164 254 255 255 252 198 
193 244 255 255 255 217 13 77 164 228 255 255 255 150 8 0 0 1 0 0 0 0 1 0 0 0 
0 146 253 201 0 0 18 197 255 255 255 255 255 255 255 255 255 255 255 255 255 
255 255 255 255 255 255 255 255 255 255 255 255 255 207 174 207 158 8 0 0 0 0 
0 211 255 185 47 202 254 255 221 17 128 189 245 255 255 209 38 100 201 255 255 
255 255 123 0 0 9 6 0 0 0 3 0 0 0 0 0 0 208 73 0 0 97 243 255 255 255 255 255 
255 255 255 255 255 255 255 255 255 255 255 255 255 255 255 255 255 255 255 
255 255 243 188 211 181 48 27 0 0 0 0 102 255 248 131 136 248 255 223 77 54 99 
215 255 234 232 186 172 129 222 241 255 255 124 0 0 20 0 3 0 0 3 0 0 0 0 0 0 53 
6 0 1 162 255 255 255 255 255 255 255 255 255 255 255 255 255 255 255 255 255 
255 255 255 255 255 255 255 255 255 255 241 201 170 196 154 7 0 0 0 0 21 110 
255 249 240 255 255 177 134 131 210 242 255 110 180 255 255 241 210 174 178 
200 75 0 0 6 0 0 30 13 0 0 0 0 0 0 0 0 0 0 74 236 255 255 255 255 255 255 255 
255 255 255 255 255 255 255 255 255 255 255 255 255 255 255 255 255 255 255 
255 226 165 227 175 202 58 14 0 0 0 0 5 79 161 129 104 91 36 57 112 237 255 
253 104 215 255 255 255 255 105 195 204 38 0 0 0 0 3 24 9 0 0 0 0 0 0 0 0 0 15 
164 255 255 255 255 255 255 255 255 255 255 255 255 255 255 255 255 255 255 
255 255 255 255 255 255 255 255 255 255 254 205 167 241 212 97 5 0 0 0 0 0 0 0 
0 0 2 0 0 4 17 40 122 159 203 176 234 255 255 227 209 74 4 23 3 0 1 3 11 3 0 0 
19 4 0 0 0 0 0 42 222 228 205 191 192 223 243 255 255 255 255 255 255 255 255 
255 255 255 255 255 255 255 255 255 255 255 255 255 255 242 204 209 180 230 
215 54 11 0 0 0 0 0 0 0 0 13 27 58 33 14 0 0 0 0 70 189 248 255 124 0 5 0 0 13 
17 90 109 63 3 0 8 109 15 0 0 0 0 1 36 89 0 0 0 0 0 94 224 255 255 255 255 255 
255 255 255 255 255 255 255 255 255 255 255 255 255 255 255 255 252 208 198 
226 158 82 129 75 1 0 0 0 0 0 0 0 63 114 146 222 166 51 0 0 0 3 104 196 192 
34 0 0 0 0 0 0 109 223 47 0 0 0 23 0 0 0 0 0 1 28 26 100 145 144 140 106 27 71 
230 255 255 255 255 255 255 255 255 255 236 166 183 223 228 255 255 255 255 
255 255 255 247 200 176 201 167 122 0 0 0 0 0 0 0 0 0 0 0 60 187 190 105 33 0 
0 0 10 27 6 0 3 9 0 0 0 0 13 70 17 0 0 0 0 0 0 0 0 0 5 141 222 246 255 255 244 
150 154 79 106 253 255 255 255 255 255 247 219 130 42 15 23 38 35 70 125 202 
255 255 255 255 234 220 211 204 147 26 0 0 0 0 0 0 0 16 93 25 0 0 32 33 22 22 
0 0 0 0 0 0 0 10 104 88 6 0 0 0 0 2 0 0 1 0 0 0 0 0 0 5 150 255 255 250 118 
23 26 23 54 16 189 255 255 255 255 255 221 137 99 0 0 0 45 111 40 0 2 35 196 
255 255 247 180 195 130 65 0 0 0 0 0 0 0 0 1 5 134 171 12 0 0 0 1 0 0 0 0 0 0 
0 4 66 148 35 0 4 3 0 0 0 15 0 1 0 0 0 0 0 5 141 240 128 114 93 196 179 88 105 
22 84 255 255 255 250 134 174 181 233 148 51 36 180 234 240 240 212 145 163 
51 245 242 243 218 123 0 0 0 0 0 0 3 1 1 0 28 198 255 216 19 0 0 0 0 0 0 0 0 0 
0 0 6 52 40 1 13 0 14 19 0 0 0 60 0 0 0 0 0 6 144 152 49 158 161 155 168 188 
207 202 85 255 255 255 253 194 167 176 234 236 133 9 9 37 112 253 255 255 255 
255 161 181 197 174 73 0 0 0 0 0 0 46 44 47 143 70 86 189 244 119 0 0 0 0 0 0 
0 0 0 0 1 6 14 4 0 0 0 5 25 7 0 0 212 15 0 0 0 0 4 91 100 77 104 48 0 0 0 86 
226 87 255 255 255 255 211 159 233 173 135 83 39 8 73 161 164 208 250 255 255 
253 204 207 103 37 0 0 0 0 0 0 16 21 173 255 225 64 77 132 96 0 0 0 0 0 0 0 0 
0 0 0 0 2 0 58 73 17 0 7 2 1 12 255 72 0 0 0 0 2 78 121 27 17 156 80 93 63 0 64 
132 255 255 255 251 234 212 153 199 199 149 51 71 187 255 188 154 198 243 255 
255 228 160 126 10 0 0 0 0 0 0 18 9 113 246 255 217 5 19 53 0 0 0 0 0 0 0 0 0 
0 0 1 10 0 142 243 146 0 15 11 7 20 201 84 15 0 0 0 4 124 181 48 94 255 134 
37 35 0 59 221 255 255 253 195 228 251 219 255 218 95 28 6 33 59 55 90 143 138 
255 243 166 161 113 6 0 0 0 0 0 0 103 60 113 248 255 81 0 1 6 0 0 0 0 9 135 
180 21 0 0 0 0 9 12 50 205 161 0 4 10 2 3 116 191 74 13 0 0 6 166 238 135 19 
193 245 94 29 35 206 255 255 255 254 182 221 254 255 240 92 117 239 249 6 18 
21 18 112 128 191 218 166 167 58 2 0 0 0 13 6 126 184 206 163 221 225 72 0 0 0 
0 0 0 0 75 255 255 250 170 0 0 0 0 29 2 64 50 0 2 0 0 0 117 132 175 149 44 2 12 
176 171 179 176 161 222 206 255 255 255 255 255 255 217 151 233 255 254 190 
52 185 255 238 0 144 164 0 0 85 125 195 184 108 14 0 0 0 0 14 14 13 113 247 
255 176 115 23 0 0 0 0 39 190 196 190 111 245 255 212 3 2 3 8 3 1 12 7 32 23 
0 0 24 54 128 255 156 81 2 57 255 198 208 214 255 222 255 255 255 255 255 255 
250 188 167 242 255 255 255 255 243 242 255 90 41 51 0 25 0 208 214 184 54 0 0 
0 0 0 25 21 32 44 95 210 93 66 21 0 0 0 0 161 255 255 255 129 90 236 178 184 
90 83 135 33 0 14 18 22 9 0 0 15 1 138 175 90 11 0 128 255 255 243 232 254 255 
255 255 255 255 255 255 232 171 188 246 255 255 255 251 190 162 186 213 132 
16 0 85 113 243 225 109 9 0 0 0 0 0 0 81 194 134 42 48 20 0 0 0 0 0 7 209 255 
237 201 131 161 210 97 213 255 114 39 39 6 5 2 0 0 0 0 3 0 31 118 142 37 0 161 
255 255 255 255 255 255 255 255 255 255 255 254 220 170 188 241 255 255 255 
255 246 214 190 225 255 189 171 201 253 255 223 61 0 0 0 0 0 1 0 107 255 212 
77 0 0 0 0 0 0 0 39 221 222 227 187 244 255 244 80 135 255 141 1 18 8 0 0 0 0 
0 0 0 1 56 155 158 42 0 186 255 255 255 255 255 255 255 255 255 255 255 255 
239 185 208 250 255 255 255 255 255 255 255 255 255 255 255 255 255 249 123 
0 0 0 0 0 0 0 51 145 175 255 160 0 0 0 0 0 0 0 77 236 181 123 119 255 255 255 
244 238 255 197 26 0 1 0 0 0 0 0 0 16 56 84 111 133 10 0 234 255 255 255 255 
255 255 255 255 255 255 255 254 219 205 199 208 253 255 255 255 255 255 255 
255 255 255 255 255 255 229 91 0 0 0 0 1 0 53 186 247 95 187 137 0 0 0 0 0 0 0 
109 248 255 130 148 254 246 238 136 255 255 165 0 0 0 0 0 0 2 1 0 0 37 61 75 
6 0 0 255 255 255 255 255 255 255 255 255 255 255 255 255 244 200 232 198 251 
255 255 255 255 255 255 255 255 255 255 255 255 192 10 0 0 0 0 9 127 155 255 
255 68 69 61 0 0 0 0 0 0 0 52 217 255 178 246 203 147 223 207 185 207 140 0 1 
0 1 26 18 0 0 0 26 22 124 13 0 0 0 246 255 255 255 255 255 255 255 255 255 255 
255 247 207 196 225 255 255 255 255 255 255 255 255 255 255 255 255 255 244 
132 0 0 0 0 0 0 0 57 227 212 38 53 0 0 0 0 0 0 0 0 0 68 219 255 207 226 182 
159 203 255 223 63 0 23 1 5 0 15 7 0 0 0 78 78 0 0 0 0 230 255 255 255 255 255 
255 255 255 255 255 255 234 250 233 246 255 255 255 255 255 255 255 255 255 
255 255 255 255 190 53 0 0 0 0 37 57 77 5 116 166 7 15 14 0 0 0 0 0 0 0 1 0 107 
255 100 105 201 255 154 255 138 0 0 26 21 8 0 0 0 0 0 1 95 63 17 0 0 0 177 255 
255 255 255 255 255 255 255 255 255 255 201 254 255 255 255 255 255 255 255 
255 255 255 255 255 255 255 236 148 7 0 0 0 4 37 198 181 0 11 84 7 0 0 0 0 0 0 
0 0 0 0 0 35 203 234 180 250 255 240 231 11 0 0 1 15 3 1 8 19 7 0 3 50 100 0 0 
0 0 94 255 255 255 255 255 139 255 255 255 255 255 245 255 255 255 255 255 255 
255 255 255 255 255 255 255 255 255 201 127 0 0 0 0 0 122 254 210 0 0 12 1 0 0 
0 0 0 0 0 0 0 0 0 1 32 152 185 202 113 39 31 0 0 0 0 0 1 3 19 16 3 0 1 4 52 0 
0 0 0 45 255 255 255 255 255 147 140 238 187 225 255 255 255 255 255 255 255 
255 255 255 255 255 255 255 255 255 255 215 42 0 0 0 0 90 219 255 179 0 0 0 0 
0 0 0 0 0 0 0 0 0 0 0 0 0 1 2 2 1 0 0 0 0 0 3 23 0 1 9 5 8 1 0 1 9 0 0 0 0 29 
254 255 255 255 255 243 49 29 10 21 136 235 255 255 255 255 255 255 255 255 
255 255 255 255 255 255 255 183 31 0 0 0 0 72 227 222 102 0 0 0 0 0 0 0 0 0 0 
0 0 0 0 0 0 0 0 0 0 0 0 19 0 0 0 8 3 0 2 0 8 6 0 23 0 0 0 0 0 0 12 199 255 255 
255 255 253 153 10 71 64 68 136 252 255 255 255 255 255 255 255 255 255 255 
255 255 255 192 130 6 0 0 0 0 7 36 57 25 0 0 0 0 0 0 0 0 0 0 0 0 0 0 0 0 0 0 0 
0 0 0 18 0 0 0 0 1 0 11 0 4 1 3 0 0 0 0 0 0 0 4 137 255 255 255 255 254 197 
49 0 78 218 255 255 255 255 255 255 255 255 255 255 255 255 255 255 220 157 
82 4 0 0 0 0 0 14 1 0 0 0 0 0 0 0 0 0 0 0 0 0 0 0 0 0 0 0 0 0 0 0 2 0 0 0 0 0 
0 0 2 2 0 3 14 0 0 0 0 0 0 3 94 236 253 255 255 254 217 105 83 199 253 255 255 
255 255 255 255 255 255 255 255 255 253 249 214 170 207 109 4 0 0 0 0 0 0 0 0 
0 0 0 0 0 0 0 0 0 0 0 0 0 0 0 0 0 0 0 0 0 0 2 0 0 0 0 0 0 1 71 69 6 44 148 117 
0 0 0 0 0 0 31 178 255 255 255 255 231 158 232 255 255 255 255 255 255 255 255 
255 255 255 255 255 214 240 209 163 182 55 0 0 0 0 0 0 0 0 0 0 0 0 0 0 0 0 0 0 
0 0 0 0 0 0 0 0 0 0 0 0 0 0 8 0 0 0 0 2 102 142 3 46 85 253 253 152 2 0 0 0 0 
3 62 209 255 255 254 203 140 253 255 255 255 255 255 255 255 255 255 255 255 
255 255 246 208 139 104 190 42 0 0 0 0 0 0 0 0 0 0 0 0 0 0 0 0 0 0 0 0 0 0 0 0 
0 0 0 0 0 0 0 0 0 0 0 0 0 7 104 95 0 40 126 255 255 255 159 18 5 0 0 0 35 203 
255 255 248 62 15 169 247 237 230 241 255 255 255 255 255 255 255 255 255 243 
202 135 150 141 21 0 0 0 0 0 0 0 0 0 0 0 0 0 0 0 0 0 0 0 0 0 0 0 0 0 0 0 0 0 0 
0 0 0 0 0 0 0 111 85 29 20 61 173 255 255 255 255 204 125 11 0 0 0 138 255 255 
245 36 6 42 114 67 56 90 185 242 255 255 255 255 255 255 255 190 147 158 179 
121 15 0 0 0 0 0 0 0 0 0 0 0 0 0 0 0 1 2 0 0 0 0 0 0 0 0 0 0 0 0 0 0 0 0 0 0 0 
41 102 64 108 129 229 255 255 255 255 255 255 255 134 0 0 0 42 218 255 254 219 
116 0 22 110 98 31 9 78 101 181 255 255 255 255 247 245 182 148 141 133 21 0 0 
0 0 0 0 0 0 0 0 0 0 0 0 0 1 15 5 0 0 0 0 0 0 0 0 0 0 0 0 0 0 0 0 1 14 108 54 
31 198 255 255 255 255 255 255 255 255 255 253 53 0 0 0 187 255 255 255 154 
60 162 71 142 168 40 67 165 220 255 255 255 255 237 209 154 138 148 82 7 0 0 0 
0 0 0 0 0 0 0 0 0 0 0 0 0 5 2 0 0 0 0 0 0 10 0 0 3 0 0 0 0 0 3 19 101 59 84 82 
251 255 255 255 255 255 255 255 255 255 255 203 1 0 0 122 251 255 255 171 39 
150 32 251 249 168 198 255 255 255 255 255 255 255 215 167 185 169 106 42 1 0 
0 0 0 0 0 0 0 0 0 0 0 0 0 0 0 0 0 0 0 0 0 0 1 0 8 0 0 0 0 0 0 0 17 17 74 90 246 
255 255 255 255 255 255 255 255 255 255 255 255 182 0 0 40 240 255 255 223 59 
2 1 23 202 255 255 255 255 255 255 255 255 200 252 198 159 137 30 15 2 0 0 0 0 
0 0 0 0 0 0 0 0 0 0 0 0 0 0 0 0 0 0 0 0 0 1 6 2 0 0 0 0 64 231 240 243 255 255 
255 255 255 255 255 255 255 255 255 255 255 232 156 22 0 0 168 255 255 255 167 
95 56 118 255 255 255 255 255 255 255 255 255 208 204 162 152 83 11 47 17 0 0 
0 0 0 0 0 0 0 0 0 0 0 0 0 0 0 0 0 0 0 0 0 0 0 6 26 1 0 0 1 3 112 255 255 255 
255 255 255 255 255 255 255 255 255 255 255 255 239 68 25 62 12 0 109 255 255 
233 127 155 126 167 236 255 255 255 255 255 255 255 255 244 199 136 138 45 54 
15 26 0 0 0 0 0 0 0 0 0 6 1 0 0 0 0 0 0 0 0 0 0 0 0 0 0 5 22 0 0 0 2 24 198 
255 255 255 255 255 255 255 255 255 255 255 255 255 255 255 155 38 54 16 6 0 44 
255 255 244 231 243 243 255 255 255 255 255 255 255 255 255 233 208 110 59 109 
24 0 11 52 0 0 0 0 0 0 0 0 0 5 24 2 0 0 0 0 0 0 0 0 0 0 0 0 2 19 12 0 0 0 0 51 
255 255 255 255 255 255 255 255 255 255 255 255 255 255 255 255 96 22 16 13 28 
6 3 206 255 255 255 255 255 255 255 255 255 255 255 255 255 255 208 183 141 
72 12 0 1 3 5 0 0 0 0 0 0 0 0 0 0 30 3 0 0 0 0 0 0 0 0 0 0 0 0 6 7 4 1 0 0 3 127 
255 255 255 255 255 255 255 255 255 255 255 250 169 177 250 255 103 27 5 23 83 
18 0 147 255 255 255 255 255 255 255 255 255 255 255 255 255 253 211 139 83 28 
17 0 0 0 0 0 0 0 0 0 1 0 0 0 2 2 1 0 0 0 0 0 0 0 0 0 0 0 0 51 0 0 0 0 0 3 152 
255 255 255 246 255 255 255 255 255 255 255 87 0 19 70 189 131 168 0 13 130 
41 0 65 255 255 255 255 255 255 255 255 255 255 255 255 255 197 103 143 105 
8 0 0 0 0 0 0 1 3 1 0 6 0 0 2 3 0 11 0 0 0 0 0 0 15 0 0 0 0 0 0 43 0 0 0 0 17 
168 255 255 255 255 255 255 255 255 255 255 255 3 30 13 0 71 173 239 65 0 167 
104 4 5 246 255 255 255 255 255 255 255 255 255 255 255 250 155 107 133 35 25 
11 0 0 0 0 0 9 65 43 2 0 0 9 2 2 0 0 0 0 0 0 0 0 0 7 0 0 0 0 0 0 1 1 0 0 10 225 
255 255 255 255 255 255 255 255 255 255 255 19 3 11 3 143 239 100 14 0 148 107 
6 42 107 250 255 255 255 255 255 255 255 255 234 202 163 134 121 68 63 35 10 
7 3 0 0 0 2 47 140 42 0 10 26 4 7 0 0 5 0 0 0 0 0 0 2 0 0 0 0 0 0 2 3 0 0 19 
255 255 255 255 255 255 255 255 255 255 255 255 0 17 10 79 181 183 27 11 0 87 
78 43 89 22 87 205 255 255 255 255 231 212 167 188 161 107 76 80 29 25 3 9 18 
6 0 3 0 37 16 158 183 136 155 23 0 0 0 0 4 0 0 0 0 0 0 6 0 0 0 0 0 9 8 0 19 1 
18 255 255 255 255 255 255 255 255 255 255 255 255 104 0 27 172 255 174 5 3 8 
118 66 56 52 35 0 30 60 53 147 168 195 174 114 33 112 19 16 6 23 48 8 53 60 59 
0 1 21 12 0 155 254 175 54 4 13 0 0 0 0 0 0 0 0 0 5 17 13 0 0 0 0 2 1 0 5 0 13 
193 255 255 255 255 255 255 255 255 255 255 255 251 210 104 205 255 51 0 1 17 
118 50 4 1 45 49 14 3 0 18 5 10 9 13 47 26 29 18 11 28 37 12 53 39 6 0 1 11 0 
0 42 35 6 0 0 0 0 0 0 0 0 0 0 0 0 0 6 13 0 0 1 0 4 15 0 0 0 3 139 255 255 255 
255 255 255 255 255 255 255 255 255 253 246 242 149 5 1 42 182 95 8 37 116 156 
168 3 1 6 2 19 0 11 40 49 32 101 41 41 40 20 31 16 72 81 11 3 1 33 13 0 1 15 
0 1 3 0 0 0 0 0 0 16 15 0 10 13 0 1 0 3 3 12 24 0 0 0 0 40 210 255 255 255 255 
255 255 255 255 255 255 255 249 153 99 15 42 73 111 221 75 3 37 203 173 177 
66 32 47 27 40 0 11 30 39 30 25 48 52 14 7 28 52 64 40 18 36 5 31 0 0 35 6 0 8 
29 0 0 0 0 0 0 23 21 7 53 15 0 5 3 0 0 12 8 0 0 0 0 12 154 255 255 255 255 255 
255 255 255 255 255 
